<svg xmlns="http://www.w3.org/2000/svg" xmlns:xlink="http://www.w3.org/1999/xlink" width="260" zoomAndPan="magnify" viewBox="0 0 194.87999 52.499999" height="70" preserveAspectRatio="xMidYMid meet" version="1.0"><defs><g/></defs><g fill="#d3d3d3" fill-opacity="1"><g transform="translate(3.909673, 33.977817)"><g><path d="M 33.03125 0 L 23.65625 0 L 23.65625 -9.015625 L 11.875 -9.015625 L 11.875 0 L 2.5 0 L 2.5 -22.359375 L 11.875 -22.359375 L 11.875 -13.3125 L 23.65625 -13.3125 L 23.65625 -22.359375 L 33.03125 -22.359375 Z M 33.03125 0 "/></g></g><g transform="translate(39.425398, 33.977817)"><g><path d="M 37.546875 0 L 28.046875 0 L 25.9375 -3.65625 L 11.84375 -3.65625 L 9.734375 0 L 0.234375 0 L 14.53125 -22.34375 L 23.25 -22.34375 Z M 22.78125 -9.1875 L 18.890625 -15.96875 L 15 -9.1875 Z M 22.78125 -9.1875 "/></g></g><g transform="translate(77.199799, 33.977817)"><g><path d="M 33.015625 0 L 24.140625 0 C 23.742188 -0.5625 23.460938 -1.28125 23.296875 -2.15625 C 23.148438 -2.820312 22.929688 -3.476562 22.640625 -4.125 C 22.347656 -4.78125 21.84375 -5.320312 21.125 -5.75 C 20.414062 -6.1875 19.363281 -6.421875 17.96875 -6.453125 L 11.875 -6.453125 L 11.875 0 L 2.5 0 L 2.5 -22.359375 L 17.75 -22.359375 C 21.394531 -22.359375 24.332031 -22.082031 26.5625 -21.53125 C 28.800781 -20.988281 30.4375 -20.132812 31.46875 -18.96875 C 32.5 -17.800781 33.015625 -16.273438 33.015625 -14.390625 C 33.015625 -12.828125 32.65625 -11.507812 31.9375 -10.4375 C 31.226562 -9.363281 30.109375 -8.519531 28.578125 -7.90625 C 30.054688 -7.289062 31.015625 -6.550781 31.453125 -5.6875 C 31.898438 -4.832031 32.175781 -3.890625 32.28125 -2.859375 C 32.382812 -1.953125 32.628906 -1 33.015625 0 Z M 11.875 -11.96875 L 17.234375 -11.984375 C 18.722656 -11.984375 19.898438 -12.050781 20.765625 -12.1875 C 21.628906 -12.320312 22.265625 -12.503906 22.671875 -12.734375 C 23.085938 -12.972656 23.351562 -13.234375 23.46875 -13.515625 C 23.582031 -13.796875 23.640625 -14.085938 23.640625 -14.390625 C 23.640625 -14.691406 23.582031 -14.988281 23.46875 -15.28125 C 23.351562 -15.570312 23.085938 -15.832031 22.671875 -16.0625 C 22.265625 -16.300781 21.628906 -16.488281 20.765625 -16.625 C 19.898438 -16.757812 18.722656 -16.828125 17.234375 -16.828125 L 11.875 -16.828125 Z M 11.875 -11.96875 "/></g></g><g transform="translate(111.453781, 33.977817)"><g><path d="M 11.875 0 L 2.5 0 L 2.5 -22.359375 L 11.875 -22.359375 Z M 11.875 0 "/></g></g><g transform="translate(125.815842, 33.977817)"><g><path d="M 14.765625 0.484375 C 11.742188 0.484375 9.304688 0.160156 7.453125 -0.484375 C 5.609375 -1.140625 4.203125 -2.035156 3.234375 -3.171875 C 2.273438 -4.304688 1.628906 -5.617188 1.296875 -7.109375 L 11.25 -7.109375 C 11.988281 -6.046875 13.160156 -5.515625 14.765625 -5.515625 C 16.378906 -5.515625 17.554688 -6.046875 18.296875 -7.109375 C 18.359375 -7.210938 18.390625 -7.304688 18.390625 -7.390625 C 18.390625 -7.671875 18.015625 -7.878906 17.265625 -8.015625 C 16.523438 -8.148438 15.414062 -8.253906 13.9375 -8.328125 C 12.082031 -8.410156 10.128906 -8.609375 8.078125 -8.921875 C 3.523438 -9.628906 1.25 -11.460938 1.25 -14.421875 C 1.25 -14.671875 1.265625 -14.9375 1.296875 -15.21875 C 1.628906 -16.707031 2.273438 -18.019531 3.234375 -19.15625 C 4.203125 -20.289062 5.609375 -21.179688 7.453125 -21.828125 C 9.304688 -22.484375 11.742188 -22.8125 14.765625 -22.8125 C 17.785156 -22.8125 20.21875 -22.484375 22.0625 -21.828125 C 23.914062 -21.179688 25.328125 -20.289062 26.296875 -19.15625 C 27.265625 -18.019531 27.914062 -16.707031 28.25 -15.21875 L 18.296875 -15.21875 C 17.554688 -16.28125 16.378906 -16.8125 14.765625 -16.8125 C 13.160156 -16.8125 11.988281 -16.28125 11.25 -15.21875 C 11.195312 -15.132812 11.171875 -15.054688 11.171875 -14.984375 C 11.171875 -14.734375 11.523438 -14.546875 12.234375 -14.421875 C 12.941406 -14.304688 13.988281 -14.207031 15.375 -14.125 C 16.769531 -14.039062 18.25 -13.90625 19.8125 -13.71875 C 21.382812 -13.53125 22.851562 -13.207031 24.21875 -12.75 C 25.582031 -12.289062 26.648438 -11.609375 27.421875 -10.703125 C 28.023438 -10.003906 28.328125 -9.117188 28.328125 -8.046875 C 28.328125 -7.753906 28.300781 -7.441406 28.25 -7.109375 C 27.914062 -5.617188 27.265625 -4.304688 26.296875 -3.171875 C 25.328125 -2.035156 23.914062 -1.140625 22.0625 -0.484375 C 20.21875 0.160156 17.785156 0.484375 14.765625 0.484375 Z M 14.765625 0.484375 "/></g></g><g transform="translate(155.381126, 33.977817)"><g><path d="M 33.03125 0 L 23.65625 0 L 23.65625 -9.015625 L 11.875 -9.015625 L 11.875 0 L 2.5 0 L 2.5 -22.359375 L 11.875 -22.359375 L 11.875 -13.3125 L 23.65625 -13.3125 L 23.65625 -22.359375 L 33.03125 -22.359375 Z M 33.03125 0 "/></g></g></g></svg>