<svg xmlns="http://www.w3.org/2000/svg" xmlns:xlink="http://www.w3.org/1999/xlink" width="1860" zoomAndPan="magnify" viewBox="0 0 1395 179.999997" height="240" preserveAspectRatio="xMidYMid meet" version="1.0"><defs><g/></defs><g fill="#ffffff" fill-opacity="0.5"><g transform="translate(-1.078112, 140.06367)"><g><path d="M 64.328125 2.109375 C 51.160156 2.109375 40.550781 0.695312 32.5 -2.125 C 24.445312 -4.957031 18.316406 -8.847656 14.109375 -13.796875 C 9.898438 -18.753906 7.070312 -24.46875 5.625 -30.9375 L 48.984375 -30.9375 C 52.203125 -26.320312 57.316406 -24.015625 64.328125 -24.015625 C 71.335938 -24.015625 76.445312 -26.320312 79.65625 -30.9375 C 79.925781 -31.394531 80.0625 -31.800781 80.0625 -32.15625 C 80.0625 -33.382812 78.441406 -34.300781 75.203125 -34.90625 C 71.972656 -35.519531 67.148438 -35.984375 60.734375 -36.296875 C 52.628906 -36.660156 44.125 -37.519531 35.21875 -38.875 C 15.351562 -41.957031 5.421875 -49.941406 5.421875 -62.828125 C 5.421875 -63.921875 5.488281 -65.078125 5.625 -66.296875 C 7.070312 -72.765625 9.898438 -78.472656 14.109375 -83.421875 C 18.316406 -88.378906 24.445312 -92.269531 32.5 -95.09375 C 40.550781 -97.925781 51.160156 -99.34375 64.328125 -99.34375 C 77.492188 -99.34375 88.101562 -97.925781 96.15625 -95.09375 C 104.207031 -92.269531 110.332031 -88.378906 114.53125 -83.421875 C 118.738281 -78.472656 121.566406 -72.765625 123.015625 -66.296875 L 79.65625 -66.296875 C 76.445312 -70.910156 71.335938 -73.21875 64.328125 -73.21875 C 57.316406 -73.21875 52.203125 -70.910156 48.984375 -66.296875 C 48.765625 -65.929688 48.65625 -65.59375 48.65625 -65.28125 C 48.65625 -64.195312 50.203125 -63.394531 53.296875 -62.875 C 56.398438 -62.351562 60.96875 -61.910156 67 -61.546875 C 73.039062 -61.179688 79.476562 -60.59375 86.3125 -59.78125 C 93.144531 -58.96875 99.535156 -57.550781 105.484375 -55.53125 C 111.429688 -53.519531 116.078125 -50.546875 119.421875 -46.609375 C 122.046875 -43.585938 123.359375 -39.742188 123.359375 -35.078125 C 123.359375 -33.765625 123.242188 -32.382812 123.015625 -30.9375 C 121.566406 -24.46875 118.738281 -18.753906 114.53125 -13.796875 C 110.332031 -8.847656 104.207031 -4.957031 96.15625 -2.125 C 88.101562 0.695312 77.492188 2.109375 64.328125 2.109375 Z M 64.328125 2.109375 "/></g></g></g><g fill="#ffffff" fill-opacity="0.5"><g transform="translate(127.705018, 140.06367)"><g><path d="M 163.53125 0 L 122.140625 0 L 112.984375 -15.953125 L 51.578125 -15.953125 L 42.40625 0 L 1.015625 0 L 63.3125 -97.3125 L 101.234375 -97.3125 Z M 99.203125 -40.03125 L 82.3125 -69.546875 L 65.34375 -40.03125 Z M 99.203125 -40.03125 "/></g></g></g><g fill="#ffffff" fill-opacity="0.5"><g transform="translate(292.246165, 140.06367)"><g><path d="M 51.703125 0 L 10.859375 0 L 10.859375 -97.375 L 51.703125 -97.375 Z M 51.703125 0 "/></g></g></g><g fill="#ffffff" fill-opacity="0.5"><g transform="translate(354.805724, 140.06367)"><g><path d="M 155.328125 0 L 106.734375 0 L 51.703125 -65.890625 L 51.703125 0 L 10.859375 0 L 10.859375 -97.375 L 59.4375 -97.375 L 114.46875 -31.828125 L 114.46875 -97.375 L 155.328125 -97.375 Z M 155.328125 0 "/></g></g></g><g fill="#ffffff" fill-opacity="0.5"><g transform="translate(520.975324, 140.06367)"><g><path d="M 51.703125 0 L 10.859375 0 L 10.859375 -97.375 L 51.703125 -97.375 Z M 51.703125 0 "/></g></g></g><g fill="#ffffff" fill-opacity="0.5"><g transform="translate(583.53486, 140.06367)"><g><path d="M 143.859375 0 L 103 0 L 103 -39.28125 L 51.703125 -39.28125 L 51.703125 0 L 10.859375 0 L 10.859375 -97.375 L 51.703125 -97.375 L 51.703125 -58.015625 L 103 -58.015625 L 103 -97.375 L 143.859375 -97.375 Z M 143.859375 0 "/></g></g></g><g fill="#ffffff" fill-opacity="0.5"><g transform="translate(738.237456, 140.06367)"><g><path d="M 163.53125 0 L 122.140625 0 L 112.984375 -15.953125 L 51.578125 -15.953125 L 42.40625 0 L 1.015625 0 L 63.3125 -97.3125 L 101.234375 -97.3125 Z M 99.203125 -40.03125 L 82.3125 -69.546875 L 65.34375 -40.03125 Z M 99.203125 -40.03125 "/></g></g></g><g fill="#ffffff" fill-opacity="0.5"><g transform="translate(902.778581, 140.06367)"><g><path d="M 143.78125 0 L 105.171875 0 C 103.410156 -2.445312 102.164062 -5.566406 101.4375 -9.359375 C 100.8125 -12.304688 99.863281 -15.191406 98.59375 -18.015625 C 97.320312 -20.835938 95.132812 -23.1875 92.03125 -25.0625 C 88.9375 -26.945312 84.335938 -27.957031 78.234375 -28.09375 L 51.703125 -28.09375 L 51.703125 0 L 10.859375 0 L 10.859375 -97.375 L 77.28125 -97.375 C 93.164062 -97.375 105.976562 -96.1875 115.71875 -93.8125 C 125.46875 -91.4375 132.582031 -87.703125 137.0625 -82.609375 C 141.539062 -77.523438 143.78125 -70.890625 143.78125 -62.703125 C 143.78125 -55.867188 142.226562 -50.117188 139.125 -45.453125 C 136.03125 -40.796875 131.140625 -37.113281 124.453125 -34.40625 C 130.921875 -31.738281 135.113281 -28.535156 137.03125 -24.796875 C 138.957031 -21.066406 140.144531 -16.960938 140.59375 -12.484375 C 141.050781 -8.503906 142.113281 -4.34375 143.78125 0 Z M 51.703125 -52.109375 L 75.046875 -52.1875 C 81.554688 -52.1875 86.6875 -52.476562 90.4375 -53.0625 C 94.195312 -53.65625 96.96875 -54.457031 98.75 -55.46875 C 100.539062 -56.488281 101.6875 -57.617188 102.1875 -58.859375 C 102.6875 -60.109375 102.9375 -61.390625 102.9375 -62.703125 C 102.9375 -64.015625 102.6875 -65.300781 102.1875 -66.5625 C 101.6875 -67.832031 100.539062 -68.972656 98.75 -69.984375 C 96.96875 -71.003906 94.195312 -71.804688 90.4375 -72.390625 C 86.6875 -72.984375 81.554688 -73.28125 75.046875 -73.28125 L 51.703125 -73.28125 Z M 51.703125 -52.109375 "/></g></g></g><g fill="#ffffff" fill-opacity="0.5"><g transform="translate(1051.985177, 140.06367)"><g><path d="M 51.703125 0 L 10.859375 0 L 10.859375 -97.375 L 51.703125 -97.375 Z M 51.703125 0 "/></g></g></g><g fill="#ffffff" fill-opacity="0.5"><g transform="translate(1114.544713, 140.06367)"><g><path d="M 64.328125 2.109375 C 51.160156 2.109375 40.550781 0.695312 32.5 -2.125 C 24.445312 -4.957031 18.316406 -8.847656 14.109375 -13.796875 C 9.898438 -18.753906 7.070312 -24.46875 5.625 -30.9375 L 48.984375 -30.9375 C 52.203125 -26.320312 57.316406 -24.015625 64.328125 -24.015625 C 71.335938 -24.015625 76.445312 -26.320312 79.65625 -30.9375 C 79.925781 -31.394531 80.0625 -31.800781 80.0625 -32.15625 C 80.0625 -33.382812 78.441406 -34.300781 75.203125 -34.90625 C 71.972656 -35.519531 67.148438 -35.984375 60.734375 -36.296875 C 52.628906 -36.660156 44.125 -37.519531 35.21875 -38.875 C 15.351562 -41.957031 5.421875 -49.941406 5.421875 -62.828125 C 5.421875 -63.921875 5.488281 -65.078125 5.625 -66.296875 C 7.070312 -72.765625 9.898438 -78.472656 14.109375 -83.421875 C 18.316406 -88.378906 24.445312 -92.269531 32.5 -95.09375 C 40.550781 -97.925781 51.160156 -99.34375 64.328125 -99.34375 C 77.492188 -99.34375 88.101562 -97.925781 96.15625 -95.09375 C 104.207031 -92.269531 110.332031 -88.378906 114.53125 -83.421875 C 118.738281 -78.472656 121.566406 -72.765625 123.015625 -66.296875 L 79.65625 -66.296875 C 76.445312 -70.910156 71.335938 -73.21875 64.328125 -73.21875 C 57.316406 -73.21875 52.203125 -70.910156 48.984375 -66.296875 C 48.765625 -65.929688 48.65625 -65.59375 48.65625 -65.28125 C 48.65625 -64.195312 50.203125 -63.394531 53.296875 -62.875 C 56.398438 -62.351562 60.96875 -61.910156 67 -61.546875 C 73.039062 -61.179688 79.476562 -60.59375 86.3125 -59.78125 C 93.144531 -58.96875 99.535156 -57.550781 105.484375 -55.53125 C 111.429688 -53.519531 116.078125 -50.546875 119.421875 -46.609375 C 122.046875 -43.585938 123.359375 -39.742188 123.359375 -35.078125 C 123.359375 -33.765625 123.242188 -32.382812 123.015625 -30.9375 C 121.566406 -24.46875 118.738281 -18.753906 114.53125 -13.796875 C 110.332031 -8.847656 104.207031 -4.957031 96.15625 -2.125 C 88.101562 0.695312 77.492188 2.109375 64.328125 2.109375 Z M 64.328125 2.109375 "/></g></g></g><g fill="#ffffff" fill-opacity="0.5"><g transform="translate(1243.32782, 140.06367)"><g><path d="M 143.859375 0 L 103 0 L 103 -39.28125 L 51.703125 -39.28125 L 51.703125 0 L 10.859375 0 L 10.859375 -97.375 L 51.703125 -97.375 L 51.703125 -58.015625 L 103 -58.015625 L 103 -97.375 L 143.859375 -97.375 Z M 143.859375 0 "/></g></g></g></svg>