<svg xmlns="http://www.w3.org/2000/svg" xmlns:xlink="http://www.w3.org/1999/xlink" width="260" zoomAndPan="magnify" viewBox="0 0 194.87999 52.499999" height="70" preserveAspectRatio="xMidYMid meet" version="1.0"><defs><g/></defs><g fill="#d3d3d3" fill-opacity="0.5"><g transform="translate(14.823415, 35.54367)"><g><path d="M 17.203125 0.5625 C 13.679688 0.5625 10.84375 0.1875 8.6875 -0.5625 C 6.539062 -1.320312 4.90625 -2.363281 3.78125 -3.6875 C 2.65625 -5.007812 1.894531 -6.535156 1.5 -8.265625 L 13.09375 -8.265625 C 13.957031 -7.035156 15.328125 -6.421875 17.203125 -6.421875 C 19.078125 -6.421875 20.441406 -7.035156 21.296875 -8.265625 C 21.367188 -8.390625 21.40625 -8.5 21.40625 -8.59375 C 21.40625 -8.925781 20.972656 -9.171875 20.109375 -9.328125 C 19.242188 -9.492188 17.953125 -9.617188 16.234375 -9.703125 C 14.066406 -9.796875 11.796875 -10.023438 9.421875 -10.390625 C 4.109375 -11.210938 1.453125 -13.347656 1.453125 -16.796875 C 1.453125 -17.085938 1.46875 -17.394531 1.5 -17.71875 C 1.894531 -19.445312 2.65625 -20.972656 3.78125 -22.296875 C 4.90625 -23.628906 6.539062 -24.671875 8.6875 -25.421875 C 10.84375 -26.179688 13.679688 -26.5625 17.203125 -26.5625 C 20.722656 -26.5625 23.554688 -26.179688 25.703125 -25.421875 C 27.859375 -24.671875 29.5 -23.628906 30.625 -22.296875 C 31.75 -20.972656 32.503906 -19.445312 32.890625 -17.71875 L 21.296875 -17.71875 C 20.441406 -18.957031 19.078125 -19.578125 17.203125 -19.578125 C 15.328125 -19.578125 13.957031 -18.957031 13.09375 -17.71875 C 13.039062 -17.625 13.015625 -17.535156 13.015625 -17.453125 C 13.015625 -17.160156 13.425781 -16.941406 14.25 -16.796875 C 15.082031 -16.660156 16.304688 -16.546875 17.921875 -16.453125 C 19.535156 -16.359375 21.253906 -16.203125 23.078125 -15.984375 C 24.898438 -15.765625 26.609375 -15.382812 28.203125 -14.84375 C 29.796875 -14.3125 31.039062 -13.519531 31.9375 -12.46875 C 32.632812 -11.65625 32.984375 -10.625 32.984375 -9.375 C 32.984375 -9.03125 32.953125 -8.660156 32.890625 -8.265625 C 32.503906 -6.535156 31.75 -5.007812 30.625 -3.6875 C 29.5 -2.363281 27.859375 -1.320312 25.703125 -0.5625 C 23.554688 0.1875 20.722656 0.5625 17.203125 0.5625 Z M 17.203125 0.5625 "/></g></g><g transform="translate(49.257043, 35.54367)"><g><path d="M 43.71875 0 L 32.65625 0 L 30.203125 -4.265625 L 13.78125 -4.265625 L 11.34375 0 L 0.265625 0 L 16.921875 -26.015625 L 27.0625 -26.015625 Z M 26.53125 -10.703125 L 22 -18.59375 L 17.46875 -10.703125 Z M 26.53125 -10.703125 "/></g></g><g transform="translate(93.251536, 35.54367)"><g><path d="M 13.828125 0 L 2.90625 0 L 2.90625 -26.03125 L 13.828125 -26.03125 Z M 13.828125 0 "/></g></g><g transform="translate(109.978515, 35.54367)"><g><path d="M 41.53125 0 L 28.53125 0 L 13.828125 -17.609375 L 13.828125 0 L 2.90625 0 L 2.90625 -26.03125 L 15.890625 -26.03125 L 30.609375 -8.515625 L 30.609375 -26.03125 L 41.53125 -26.03125 Z M 41.53125 0 "/></g></g><g transform="translate(154.408418, 35.54367)"><g><path d="M 13.828125 0 L 2.90625 0 L 2.90625 -26.03125 L 13.828125 -26.03125 Z M 13.828125 0 "/></g></g></g></svg>